<mxfile host="app.diagrams.net" modified="2024-06-01T18:51:58.599Z" agent="Mozilla/5.0 (Windows NT 10.0; Win64; x64) AppleWebKit/537.36 (KHTML, like Gecko) Chrome/125.0.0.0 Safari/537.36" version="24.4.13" etag="bO_p66vQn_9Cez95qwD5" type="github">
  <diagram name="Page-1" id="MpcmZFAg7KXKKRmIkXeW">
    <mxGraphModel>
      <root>
        <mxCell id="0" />
        <mxCell id="1" parent="0" />
      </root>
    </mxGraphModel>
  </diagram>
</mxfile>
